<?xml version="1.0" standalone="no"?>
<!DOCTYPE svg PUBLIC "-//W3C//DTD SVG 20010904//EN"
 "http://www.w3.org/TR/2001/REC-SVG-20010904/DTD/svg10.dtd">
<svg version="1.0" xmlns="http://www.w3.org/2000/svg"
 width="448.000000pt" height="448.000000pt" viewBox="0 0 448.000000 448.000000"
 preserveAspectRatio="xMidYMid meet">

<g transform="translate(0.000000,448.000000) scale(0.100000,-0.100000)"
fill="#000000" stroke="none">
<path d="M1255 3365 c-243 -38 -438 -133 -612 -298 -226 -215 -346 -497 -345
-813 1 -307 103 -560 316 -782 321 -334 829 -432 1257 -243 189 83 214 105
877 765 337 336 611 615 609 621 -2 5 -21 22 -43 37 -134 94 -335 102 -489 20
-35 -19 -183 -160 -509 -485 -301 -301 -482 -474 -525 -503 -116 -77 -290
-123 -421 -110 -280 26 -507 199 -596 455 -126 361 64 750 425 871 167 56 329
49 496 -21 l70 -29 155 155 155 156 -30 25 c-16 13 -64 42 -106 64 -206 107
-461 151 -684 115z"/>
<path d="M2943 3370 c-46 -5 -122 -18 -170 -30 -109 -27 -305 -121 -393 -189
-36 -27 -337 -322 -668 -654 l-604 -604 51 -32 c140 -90 299 -102 454 -35 57
25 104 70 542 503 518 514 532 526 690 578 70 23 96 27 210 27 114 0 140 -4
210 -27 109 -36 196 -89 275 -168 76 -75 126 -159 166 -275 25 -70 28 -93 28
-209 0 -113 -3 -140 -26 -208 -100 -300 -379 -493 -688 -475 -87 6 -206 36
-272 69 l-38 19 -142 -142 c-79 -79 -149 -150 -156 -159 -10 -13 -5 -20 36
-46 103 -67 229 -120 354 -150 104 -25 402 -25 506 0 343 83 619 310 768 632
101 218 124 500 60 747 -135 527 -646 882 -1193 828z"/>
</g>
</svg>
